<?xml version="1.0" encoding="UTF-8" standalone="no"?><!DOCTYPE svg PUBLIC "-//W3C//DTD SVG 1.1//EN" "http://www.w3.org/Graphics/SVG/1.1/DTD/svg11.dtd"><svg width="100%" height="100%" viewBox="0 0 1325 528" version="1.1" xmlns="http://www.w3.org/2000/svg" xmlns:xlink="http://www.w3.org/1999/xlink" xml:space="preserve" xmlns:serif="http://www.serif.com/" style="fill-rule:evenodd;clip-rule:evenodd;stroke-linejoin:round;stroke-miterlimit:2;"><g><g><path d="M1060.83,0c145.706,0 264,118.294 264,264c0,145.706 -118.294,264 -264,264c-145.705,-0 -264,-118.294 -264,-264c0,-145.706 118.295,-264 264,-264Zm94.78,192c39.738,0 72,32.262 72,72c0,39.738 -32.262,72 -72,72c-39.738,0 -72,-32.262 -72,-72c0,-39.738 32.262,-72 72,-72Z" style="fill:#dc2626;"/><path d="M117.323,154.072l790.171,0l0,219.856l-222.631,-0l-47.177,-58.983l-47.178,58.983l-47.83,-0l-52.267,-44.025l-52.266,44.025l-47.831,-0l-27.825,-58.983l-27.825,58.983l-27.825,-58.983l-13.913,29.491l-218.504,0l-74.422,-80.436l117.323,-109.928Zm54.231,111.72l0.15,-1.568c0.348,-3.036 0.473,-6.135 0.373,-9.296c-0.099,-3.16 -0.448,-6.234 -1.045,-9.22c-0.647,-2.987 -1.581,-5.799 -2.8,-8.437c-1.22,-2.638 -2.8,-4.978 -4.741,-7.019c-1.991,-1.991 -4.355,-3.583 -7.093,-4.778c-2.738,-1.195 -5.948,-1.842 -9.632,-1.941c-2.887,-0.05 -5.624,0.249 -8.213,0.896c-2.588,0.647 -5.027,1.617 -7.316,2.912c-1.444,0.796 -2.838,1.742 -4.182,2.837c-1.344,1.095 -2.613,2.314 -3.807,3.658l1.418,-8.885l-12.245,0.075l-19.412,111.845l13.514,0l7.242,-38.899c0.996,1.194 2.066,2.277 3.211,3.247c1.145,0.971 2.339,1.805 3.584,2.502c2.09,1.194 4.343,2.09 6.757,2.688c2.414,0.597 4.89,0.92 7.429,0.97c3.384,0.05 6.533,-0.361 9.445,-1.232c2.911,-0.871 5.587,-2.103 8.026,-3.696c3.185,-2.04 5.998,-4.678 8.437,-7.914c2.439,-3.235 4.43,-6.695 5.973,-10.378c1.294,-2.887 2.352,-5.898 3.173,-9.034c0.821,-3.136 1.406,-6.247 1.754,-9.333Zm-13.364,-1.568l-0.149,1.568c-0.299,2.24 -0.76,4.517 -1.382,6.832c-0.622,2.314 -1.406,4.566 -2.352,6.757c-1.095,2.439 -2.426,4.778 -3.994,7.018c-1.568,2.24 -3.422,4.106 -5.563,5.6c-1.791,1.344 -3.807,2.376 -6.047,3.098c-2.24,0.722 -4.679,1.058 -7.317,1.008c-1.892,-0.099 -3.659,-0.386 -5.301,-0.859c-1.643,-0.472 -3.111,-1.157 -4.405,-2.053c-1.295,-0.896 -2.464,-2.003 -3.51,-3.322c-1.045,-1.319 -1.941,-2.85 -2.687,-4.592l6.794,-39.049c1.095,-1.443 2.252,-2.787 3.472,-4.032c1.219,-1.244 2.526,-2.314 3.92,-3.21c1.742,-1.244 3.646,-2.19 5.711,-2.837c2.066,-0.647 4.293,-0.946 6.683,-0.896c2.538,0.05 4.716,0.498 6.533,1.344c1.816,0.846 3.372,1.966 4.666,3.36c0.946,1.144 1.755,2.389 2.427,3.733c0.672,1.344 1.256,2.887 1.754,4.629c0.647,2.489 1.008,5.127 1.083,7.914c0.074,2.787 -0.038,5.45 -0.336,7.989Zm60.626,4.032l22.175,37.555l16.053,0l-28.074,-46.44l38.377,-34.345l-17.62,-0l-30.015,26.356l-9.93,9.184l12.095,-69.437l-13.588,-0l-19.935,114.682l13.588,0l4.704,-27.326l12.17,-10.229Zm75.26,-43.23l-2.09,12.021l26.654,-0l-9.855,56.818l-26.58,0l-2.165,11.946l65.703,0l2.165,-11.946l-25.609,0l11.946,-68.839l-40.169,-0Zm28.596,-20.98c0,2.389 0.759,4.293 2.277,5.711c1.519,1.419 3.447,2.079 5.787,1.979c2.389,-0.1 4.33,-0.884 5.824,-2.352c1.493,-1.468 2.239,-3.397 2.239,-5.786c0,-2.439 -0.746,-4.405 -2.239,-5.899c-1.494,-1.493 -3.41,-2.19 -5.749,-2.09c-2.39,0.099 -4.331,0.933 -5.824,2.501c-1.493,1.568 -2.265,3.546 -2.315,5.936Zm69.959,93.179c0,2.937 0.971,5.351 2.912,7.242c1.942,1.892 4.43,2.837 7.467,2.837c3.036,0 5.599,-0.995 7.69,-2.986c2.09,-1.991 3.136,-4.604 3.136,-7.84c-0,-3.135 -0.996,-5.674 -2.987,-7.615c-1.991,-1.941 -4.504,-2.862 -7.541,-2.763c-3.235,0 -5.823,1.095 -7.765,3.285c-1.941,2.191 -2.912,4.804 -2.912,7.84Zm138.202,-31.358l0.149,-1.568c0.348,-3.037 0.473,-6.135 0.373,-9.296c-0.099,-3.161 -0.448,-6.259 -1.045,-9.295c-0.647,-2.987 -1.581,-5.799 -2.8,-8.437c-1.219,-2.638 -2.8,-4.978 -4.741,-7.019c-1.991,-1.991 -4.368,-3.583 -7.13,-4.778c-2.763,-1.195 -5.961,-1.842 -9.595,-1.941c-2.936,-0.05 -5.724,0.261 -8.362,0.933c-2.638,0.672 -5.102,1.705 -7.391,3.098c-1.344,0.797 -2.626,1.718 -3.846,2.763c-1.219,1.045 -2.401,2.19 -3.546,3.435l8.063,-42.633l-13.513,-0l-19.935,114.682l12.543,0l2.688,-9.258c0.896,1.344 1.866,2.539 2.912,3.584c1.045,1.045 2.165,1.991 3.359,2.837c2.091,1.444 4.418,2.526 6.981,3.248c2.564,0.722 5.239,1.107 8.027,1.157c3.832,0.1 7.342,-0.398 10.527,-1.493c3.186,-1.095 6.073,-2.638 8.661,-4.629c2.588,-1.991 4.878,-4.331 6.869,-7.019c1.991,-2.687 3.708,-5.574 5.152,-8.66c1.443,-3.086 2.625,-6.309 3.546,-9.669c0.921,-3.36 1.606,-6.707 2.054,-10.042Zm-13.29,-1.643l-0.224,1.568c-0.399,2.837 -1.021,5.687 -1.867,8.549c-0.846,2.862 -1.941,5.562 -3.285,8.101c-1.046,1.941 -2.253,3.733 -3.621,5.375c-1.369,1.643 -2.875,3.037 -4.517,4.182c-1.743,1.194 -3.659,2.115 -5.75,2.762c-2.09,0.647 -4.38,0.946 -6.869,0.896c-2.19,-0.05 -4.181,-0.411 -5.973,-1.083c-1.791,-0.671 -3.384,-1.605 -4.778,-2.799c-1.244,-1.046 -2.339,-2.29 -3.285,-3.734c-0.946,-1.443 -1.742,-3.061 -2.389,-4.853l6.122,-35.539c1.244,-1.792 2.601,-3.46 4.069,-5.003c1.468,-1.543 3.074,-2.887 4.816,-4.031c1.692,-1.095 3.534,-1.942 5.525,-2.539c1.991,-0.597 4.156,-0.871 6.496,-0.821c2.289,0.05 4.305,0.423 6.047,1.12c1.742,0.697 3.186,1.667 4.331,2.912c1.145,1.294 2.115,2.7 2.912,4.218c0.796,1.518 1.368,3.173 1.717,4.965c0.597,2.539 0.908,5.177 0.933,7.914c0.025,2.738 -0.112,5.351 -0.41,7.84Zm81.905,41.587l13.663,0l0.149,-1.269c-0.647,-2.688 -0.958,-5.401 -0.933,-8.138c0.025,-2.738 0.261,-5.476 0.709,-8.213l6.272,-37.556c0.448,-4.33 0.025,-8.163 -1.269,-11.498c-1.294,-3.335 -3.186,-6.172 -5.675,-8.511c-2.538,-2.29 -5.574,-4.032 -9.108,-5.227c-3.535,-1.194 -7.342,-1.841 -11.424,-1.941c-3.683,-0.05 -7.441,0.411 -11.274,1.381c-3.833,0.971 -7.342,2.452 -10.527,4.443c-3.236,1.991 -5.949,4.492 -8.139,7.503c-2.19,3.012 -3.509,6.558 -3.957,10.64l13.514,-0.075c0.498,-2.24 1.369,-4.169 2.613,-5.786c1.245,-1.618 2.738,-2.949 4.48,-3.995c1.692,-1.045 3.571,-1.816 5.637,-2.314c2.066,-0.498 4.169,-0.722 6.309,-0.672c2.439,0.05 4.667,0.423 6.683,1.12c2.015,0.697 3.72,1.717 5.114,3.061c1.394,1.344 2.426,2.986 3.098,4.928c0.672,1.941 0.859,4.181 0.56,6.719l-0.97,6.421l-15.381,-0.074c-2.986,-0 -6.01,0.186 -9.071,0.56c-3.062,0.373 -6.011,0.983 -8.848,1.829c-2.887,0.896 -5.6,2.041 -8.138,3.434c-2.539,1.394 -4.779,3.086 -6.72,5.077c-1.941,2.041 -3.521,4.406 -4.741,7.093c-1.219,2.688 -1.929,5.774 -2.128,9.259c-0.199,3.583 0.311,6.794 1.531,9.631c1.219,2.837 2.949,5.251 5.189,7.242c2.19,1.991 4.791,3.535 7.802,4.63c3.012,1.095 6.21,1.667 9.594,1.717c3.186,0.05 6.235,-0.336 9.147,-1.157c2.911,-0.822 5.661,-1.979 8.25,-3.472c1.344,-0.797 2.65,-1.668 3.92,-2.613c1.269,-0.946 2.501,-1.942 3.695,-2.987c-0.149,1.493 -0.224,2.962 -0.224,4.405c0,1.444 0.2,2.912 0.598,4.405Zm-22.772,-10.453c-2.041,-0.049 -3.908,-0.373 -5.6,-0.97c-1.693,-0.597 -3.136,-1.469 -4.331,-2.613c-1.194,-1.095 -2.065,-2.464 -2.613,-4.107c-0.547,-1.642 -0.697,-3.534 -0.448,-5.674c0.199,-1.842 0.66,-3.472 1.381,-4.891c0.722,-1.418 1.606,-2.675 2.651,-3.77c0.896,-0.896 1.891,-1.68 2.987,-2.352c1.095,-0.672 2.264,-1.257 3.509,-1.755c2.737,-1.095 5.662,-1.816 8.773,-2.165c3.111,-0.348 6.035,-0.522 8.772,-0.522l11.573,0.074l-2.912,16.426c-1.344,1.842 -2.874,3.522 -4.591,5.04c-1.718,1.518 -3.547,2.825 -5.488,3.92c-2.041,1.095 -4.219,1.941 -6.533,2.538c-2.315,0.597 -4.691,0.871 -7.13,0.821Zm116.548,-11.498c-0.348,2.34 -1.232,4.306 -2.65,5.899c-1.419,1.593 -3.124,2.837 -5.115,3.733c-1.991,0.946 -4.106,1.618 -6.346,2.016c-2.24,0.398 -4.355,0.572 -6.346,0.522c-2.439,0 -4.729,-0.311 -6.869,-0.933c-2.141,-0.622 -4.007,-1.555 -5.6,-2.8c-1.593,-1.194 -2.862,-2.737 -3.808,-4.629c-0.946,-1.891 -1.443,-4.131 -1.493,-6.72l-13.439,-0.074c-0.1,4.33 0.709,8.126 2.426,11.386c1.717,3.26 4.02,5.985 6.906,8.176c2.887,2.239 6.185,3.932 9.893,5.077c3.709,1.144 7.554,1.742 11.536,1.791c3.783,0.1 7.665,-0.311 11.647,-1.231c3.982,-0.921 7.616,-2.377 10.901,-4.368c3.285,-1.941 6.023,-4.48 8.213,-7.616c2.19,-3.136 3.385,-6.869 3.584,-11.199c0.099,-2.539 -0.224,-4.828 -0.971,-6.869c-0.747,-2.041 -1.792,-3.858 -3.136,-5.451c-1.344,-1.543 -2.949,-2.899 -4.816,-4.069c-1.866,-1.17 -3.845,-2.202 -5.935,-3.098c-2.091,-0.896 -4.231,-1.668 -6.421,-2.315c-2.19,-0.647 -4.306,-1.219 -6.347,-1.717c-1.642,-0.349 -3.447,-0.772 -5.413,-1.269c-1.966,-0.498 -3.77,-1.17 -5.413,-2.016c-1.642,-0.846 -2.974,-1.979 -3.994,-3.397c-1.021,-1.419 -1.381,-3.248 -1.083,-5.488c0.299,-2.24 1.095,-4.144 2.389,-5.712c1.295,-1.568 2.863,-2.85 4.704,-3.845c1.842,-0.946 3.82,-1.643 5.936,-2.091c2.115,-0.448 4.169,-0.647 6.16,-0.597c2.09,0.05 4.094,0.373 6.01,0.971c1.916,0.597 3.621,1.468 5.114,2.613c1.444,1.195 2.589,2.638 3.435,4.33c0.846,1.693 1.269,3.659 1.269,5.899l13.365,0.074c0.05,-4.131 -0.697,-7.752 -2.24,-10.863c-1.543,-3.111 -3.634,-5.737 -6.272,-7.877c-2.638,-2.091 -5.712,-3.683 -9.221,-4.778c-3.509,-1.095 -7.155,-1.693 -10.938,-1.792c-3.235,-0.05 -6.495,0.298 -9.781,1.045c-3.285,0.747 -6.495,1.891 -9.631,3.434c-3.584,1.743 -6.72,4.331 -9.408,7.765c-2.688,3.435 -4.106,7.417 -4.255,11.946c-0.15,3.734 0.609,6.907 2.277,9.52c1.667,2.613 3.845,4.791 6.533,6.533c2.339,1.543 4.903,2.825 7.69,3.845c2.787,1.021 5.525,1.879 8.213,2.576c1.643,0.398 3.372,0.821 5.189,1.269c1.817,0.448 3.646,1.046 5.488,1.792c1.145,0.448 2.227,0.971 3.248,1.568c1.02,0.597 1.928,1.294 2.725,2.091c0.796,0.846 1.394,1.841 1.792,2.986c0.398,1.145 0.497,2.464 0.298,3.957Zm58.237,-46.739l8.661,-45.992l-13.514,-0l-19.935,114.682l13.514,0l10.229,-58.759c1.394,-1.693 2.924,-3.261 4.592,-4.704c1.667,-1.444 3.447,-2.713 5.338,-3.808c1.842,-1.045 3.796,-1.854 5.861,-2.427c2.066,-0.572 4.244,-0.833 6.533,-0.784c2.937,0.1 5.364,0.66 7.28,1.68c1.916,1.021 3.422,2.402 4.517,4.144c1.095,1.792 1.792,3.845 2.091,6.16c0.298,2.314 0.298,4.791 -0,7.429l-8.587,51.069l13.514,0l8.512,-50.845c0.448,-4.082 0.373,-8.002 -0.224,-11.76c-0.597,-3.758 -1.792,-7.08 -3.584,-9.967c-1.792,-2.887 -4.231,-5.202 -7.317,-6.944c-3.086,-1.742 -6.919,-2.663 -11.498,-2.762c-2.688,-0.05 -5.239,0.261 -7.653,0.933c-2.414,0.672 -4.691,1.605 -6.831,2.8c-2.191,1.194 -4.244,2.638 -6.16,4.33c-1.916,1.693 -3.696,3.534 -5.339,5.525Z" style="fill:#dc2626;"/></g></g></svg>